<svg xmlns="http://www.w3.org/2000/svg" width="658" height="164"><g fill="none" fill-rule="evenodd"><path fill="#14282D" d="M.7 51.6c0 .74.68 1.4 1.4 1.4h6.72c.8 0 1.4-.66 1.4-1.4V19.9h.08l30.83 33.84h1.77c.73 0 1.4-.6 1.4-1.33V2.8c0-.74-.67-1.4-1.4-1.4h-6.8c-.8 0-1.4.66-1.4 1.4v30.45h-.06L3.96.63H2.1c-.73 0-1.4.6-1.4 1.33V51.6zm76.7-24.34C77.4 12.5 89.1.64 103.85.64S130.4 12.5 130.4 27.26c0 14.75-11.8 26.48-26.54 26.48C89.1 53.74 77.4 42 77.4 27.26zm9.57 0c0 9.3 7.6 16.9 16.9 16.9 9.3 0 16.96-7.6 16.96-16.9 0-9.3-7.67-17.04-16.97-17.04-9.3 0-16.9 7.75-16.9 17.04zm73.07 24.04c-.15 1.04.44 1.7 1.4 1.7h6.63c.67 0 1.26-.6 1.33-1.1l4.28-27.96h.22l13.05 29c.23.43.6.8 1.26.8h1.4c.7 0 1.1-.37 1.3-.8l12.9-29h.3l4.4 27.95c.2.5.8 1.1 1.4 1.1h6.7c1 0 1.6-.7 1.4-1.7l-9-49.6c0-.6-.5-1.1-1.3-1.1h-1.2c-.6 0-1 .3-1.2.7l-16.2 34.9-.2-.1-16.2-34.8c-.2-.47-.63-.76-1.22-.76h-1.2c-.8 0-1.24.5-1.32 1.1l-8.7 49.56zm87.44-24.04C247.48 12.5 259.2.64 273.95.64c14.75 0 26.55 11.87 26.55 26.62 0 14.75-11.8 26.48-26.55 26.48S247.48 42 247.48 27.26zm9.6 0c0 9.3 7.58 16.9 16.87 16.9 9.3 0 16.97-7.6 16.97-16.9 0-9.3-7.67-17.04-16.97-17.04-9.3 0-16.88 7.75-16.88 17.04zm116.1 24.34c0 .74.58 1.4 1.4 1.4h6.78c.74 0 1.4-.66 1.4-1.4V32.94h18.22c.73 0 1.4-.66 1.4-1.4V25.5c0-.75-.67-1.4-1.4-1.4h-18.22V10.2h21.83c.8 0 1.4-.66 1.4-1.4V2.78c0-.74-.6-1.4-1.4-1.4h-30.1c-.8 0-1.4.66-1.4 1.4V51.6zm61.25-24.34C434.43 12.5 446.16.64 460.9.64c14.76 0 26.56 11.87 26.56 26.62 0 14.75-11.8 26.48-26.55 26.48-14.7 0-26.4-11.73-26.4-26.48zm9.6 0c0 9.3 7.6 16.9 16.88 16.9 9.3 0 17-7.6 17-16.9 0-9.3-7.6-17.04-16.9-17.04-9.3 0-16.9 7.75-16.9 17.04zm73.05 24.04c-.14 1.04.45 1.7 1.4 1.7h6.64c.67 0 1.26-.6 1.33-1.1l4.28-27.96h.22l13.05 29c.22.43.6.8 1.26.8h1.32c.67 0 1.1-.37 1.26-.8l12.9-29h.23l4.35 27.95c.14.5.73 1.1 1.4 1.1h6.7c.97 0 1.56-.7 1.34-1.7l-8.7-49.6c-.08-.6-.52-1.1-1.33-1.1h-1.18c-.67 0-1.04.3-1.26.7L546 36.2l-.22-.02-16.22-34.8c-.2-.45-.66-.74-1.25-.74h-1.1c-.8 0-1.2.5-1.3 1.1l-8.8 49.56zm87.45-24.04C604.53 12.5 616.25.64 631 .64c14.75 0 26.55 11.87 26.55 26.62 0 14.75-11.8 26.48-26.55 26.48S604.53 42 604.53 27.26zm9.58 0c0 9.3 7.6 16.9 16.9 16.9 9.3 0 17-7.6 17-16.9 0-9.3-7.6-17.04-16.9-17.04s-16.9 7.75-16.9 17.04z"/><path stroke="#14282D" stroke-width="3" d="M2.5 84.5h653" stroke-linecap="square"/><path fill="#14282D" d="M12.7 148.1V133L1.85 117.12c-.38-.62 0-1.38.76-1.38h4.9c.4 0 .7.24.8.43l7.6 10.92 7.6-11c.2-.2.4-.5.8-.5h4.9c.8 0 1.2.7.8 1.4l-11 15.8V148c0 .47-.4.9-.9.9h-4.4c-.5 0-.9-.43-.9-.9zm12.86-8.65c0-5.36 4.37-9.92 9.74-9.92s9.73 4.56 9.73 9.92c0 5.47-4.37 10.03-9.73 10.03-5.37 0-9.74-4.56-9.74-10.03zm5.18 0c0 2.7 2 4.9 4.56 4.9 2.52 0 4.56-2.2 4.56-4.9 0-2.66-2.05-4.8-4.56-4.8-2.57 0-4.56 2.14-4.56 4.8zm18.2.67c0 4.84 2.13 9.35 8.02 9.35 3.75 0 5.5-2 6.36-2.75l.57 1.57c.1.3.4.7.9.7h1.7c.5 0 .9-.5.9-.9v-17.2c0-.6-.4-.9-.9-.9h-3.6c-.8 0-1.1.2-1.1.9v9.8c-.3 1.7-1.8 3.5-3.8 3.5-2.2 0-3.5-1.6-3.5-4.1v-9.4c0-.6-.5-.9-.9-.9h-3.9c-.5 0-.9.3-.9.9v9.2zm24.22 7.98c0 .47.42.9.9.9h3.66c.66 0 1.1-.24 1.1-.9v-11.5c.32-.66 1.46-1.94 3.36-1.94.52 0 1.23.23 1.38.28.38.2.85 0 1.1-.43l1.75-3c.6-1.2-1.4-1.9-3.6-1.9-2.9 0-4.7 2-5.3 3l-.6-1.8c-.1-.4-.4-.6-.8-.6h-1.8c-.4 0-.9.4-.9.9v17.2zm26.36-7.98c0 4.84 2.14 9.35 8.03 9.35 3.75 0 5.5-2 6.36-2.75l.6 1.57c.2.3.5.7.9.7h1.8c.5 0 .9-.5.9-.9v-17.2c0-.6-.4-.9-.9-.9h-3.6c-.7 0-1 .2-1 .9v9.8c-.3 1.7-1.8 3.5-3.8 3.5-2.2 0-3.4-1.6-3.4-4.1v-9.4c0-.6-.4-.9-.9-.9h-3.9c-.5 0-.9.3-.9.9v9.2zm24.22 7.98c0 .47.43.9.9.9h4c.47 0 .9-.43.9-.9v-31.45c0-.47-.43-.9-.9-.9h-4c-.47 0-.9.43-.9.9v31.45zm12.5-4.75c0 3.84 1.6 6.13 5.27 6.13 2.4 0 5.5-1.1 5.7-1.24.5-.2.7-.67.5-1.14l-.9-3c-.1-.47-.5-.7-1-.5-.5.18-1.5.5-2.3.5-.7 0-1.4-.18-1.4-1.5V135h4.2c.6 0 .9-.44.9-.9v-3.2c0-.52-.3-.9-.9-.9H142v-5.32c0-.48-.4-.9-.9-.9l-3.9.05c-.45 0-.9.42-.9.9V130h-1.6c-.46 0-.85.38-.85.9v3.2c0 .46.4.9.87.9h1.62v8.35zm18.2-20.1c1.84 0 3.3-1.47 3.3-3.27s-1.46-3.28-3.3-3.28c-1.82 0-3.24 1.47-3.24 3.28 0 1.8 1.42 3.27 3.23 3.27zm-2.8 24.85c0 .47.4.9.9.9h3.93c.47 0 .9-.43.9-.9v-17.2c0-.52-.43-.9-.9-.9h-3.94c-.48 0-.9.38-.9.9v17.2zm11.43 0c0 .47.43.9.9.9h3.85c.48 0 .9-.43.9-.9v-10.45c.48-1.28 1.62-3 4-3 2.42 0 3.5 1.57 3.5 4.04v9.4c0 .4.4.9.9.9h3.57c.4 0 .9-.5.9-.9v-9.7c0-.9-.1-1.8-.1-1.8s1.2-2 4-2c2.3 0 3.5 1.5 3.5 4v9.4c0 .4.3.9.9.9h3.8c.5 0 .9-.5.9-.9v-9c0-5-2.3-9.5-8.3-9.5-3.5 0-5.9 2.1-6.7 2.9-1.6-1.9-3.5-3-6.2-3-3.4 0-5.6 1.9-6.4 2.8l-.7-1.8c-.1-.3-.4-.5-.8-.5h-1.8c-.5 0-.9.4-.9.9V148zm35.63-5.13c0-3.38 2.75-6 7.6-6 1.9 0 3.46.53 3.46.53.05-2.42-.7-3.27-2.47-3.27-1.8 0-4.3.38-5.4.7-.7.2-1-.23-1.1-.84l-.4-2.5c-.2-.7.2-1.1.6-1.2.4-.2 3.4-.9 6.4-.9 5.9 0 7.3 3.1 7.3 8.2V148c0 .4-.5.9-.9.9H212c-.34 0-.58-.2-.8-.7l-.58-1.3c-1.1 1-2.86 2.4-5.8 2.4-3.8 0-6.4-2.5-6.4-6.5zm5.22 0c0 1.42 1 2.47 2.47 2.47 1.5 0 2.9-1.28 3.2-1.85v-2.7s-1.3-.6-2.7-.6c-1.9 0-3.1 1-3.1 2.5zm17.44.38c0 3.84 1.6 6.13 5.27 6.13 2.33 0 5.4-1.1 5.65-1.24.47-.2.7-.67.52-1.14l-.95-3c-.14-.47-.52-.7-1.04-.5-.5.18-1.5.5-2.3.5-.7 0-1.4-.18-1.4-1.5V135h4.2c.5 0 .9-.44.9-.9v-3.2c0-.52-.4-.9-.9-.9H227v-5.32c0-.48-.37-.9-.85-.9l-3.9.05c-.47 0-.9.42-.9.9V130h-1.6c-.5 0-.87.38-.87.9v3.2c0 .46.38.9.86.9h1.6v8.35zm13.96-3.85c0-5.37 4.04-9.97 9.7-9.97 4.88 0 8.87 3.7 8.87 8.83 0 .33-.1.95-.1 1.28-.1.48-.5.8-.9.8h-12.2c.1 1.96 1.8 4.14 4.5 4.14 1.4 0 2.8-.57 3.7-1.2.4-.27.9-.37 1.2.02l1.9 2.23c.3.33.4.85-.1 1.23-1.6 1.47-4 2.6-7.1 2.6-5.7 0-9.8-4.5-9.8-9.96zm5.84-2.38h7.18c-.15-1.75-1.67-3.22-3.47-3.22-1.9 0-3.47 1.42-3.7 3.22zm26.46 10.6c1 .76 3.18 1.75 6.32 1.75 4.8 0 7.55-2.66 7.55-5.8 0-3.7-2.8-5.26-6.5-6.7-1.8-.7-2.6-.98-2.6-1.84 0-.62.5-1.1 1.6-1.1 1.8 0 3.9 1 3.9 1 .4.15.9.1 1.1-.33l1.2-2.42c.2-.47 0-1-.5-1.28-1-.67-3-1.47-5.8-1.47-4.9 0-7 2.7-7 5.6 0 2.9 1.7 4.84 5.3 6.27 2.5 1 3.2 1.52 3.2 2.38 0 .8-.7 1.18-1.7 1.18-2.2 0-4.4-1.14-4.4-1.14-.44-.23-.9-.14-1.1.34l-1.3 2.56c-.2.38 0 .76.3 1zm16.58-8.27c0-5.36 4.37-9.92 9.74-9.92 5.36 0 9.73 4.56 9.73 9.92 0 5.47-4.37 10.03-9.74 10.03-5.36 0-9.73-4.56-9.73-10.03zm5.18 0c0 2.7 2 4.9 4.56 4.9 2.5 0 4.56-2.2 4.56-4.9 0-2.66-2.05-4.8-4.56-4.8-2.57 0-4.56 2.14-4.56 4.8zm17.05.05c0 5.7 4.7 9.97 10.07 9.97 3.37 0 5.9-1.47 7.5-3.98.33-.5.14-1-.33-1.4l-2.04-1.8c-.38-.3-.86-.2-1.2.1-.85.8-1.75 1.8-3.8 1.8-2.56 0-4.6-2.2-4.6-4.9s2.1-4.9 4.66-4.9c1.3 0 2.5.6 3.2 1.5.3.2.7.5 1.2.1l2.2-2.1c.4-.3.5-.9.2-1.3-1.8-2.2-4.1-3.4-7.1-3.4-5.3 0-10.1 4.4-10.1 10zm24.5-16.25c1.86 0 3.33-1.47 3.33-3.27s-1.47-3.28-3.32-3.28c-1.8 0-3.23 1.47-3.23 3.28 0 1.8 1.5 3.27 3.3 3.27zm-2.8 24.85c0 .47.43.9.9.9H333c.47 0 .9-.43.9-.9v-17.2c0-.52-.43-.9-.9-.9h-3.94c-.48 0-.9.38-.9.9v17.2zm10.07-5.13c0-3.38 2.76-6 7.6-6 1.9 0 3.47.53 3.47.53.05-2.42-.7-3.27-2.47-3.27-1.75 0-4.23.38-5.32.7-.66.2-1-.23-1.1-.84l-.42-2.5c-.14-.7.24-1.1.67-1.2.38-.2 3.42-.9 6.46-.9 5.9 0 7.3 3.1 7.3 8.2V148c0 .48-.5.9-.9.9h-1.7c-.4 0-.6-.13-.9-.65l-.6-1.3c-1.1 1-2.9 2.44-5.8 2.44-3.8 0-6.4-2.5-6.4-6.5zm5.23 0c0 1.42 1 2.47 2.47 2.47 1.52 0 3-1.28 3.28-1.85v-2.7s-1.3-.6-2.66-.6c-1.85 0-3.1 1-3.1 2.5zm16.44 5.13c0 .47.42.9.9.9h4c.46 0 .9-.43.9-.9v-31.45c0-.47-.44-.9-.9-.9h-4c-.48 0-.9.43-.9.9v31.45zm23-4.75c0 3.84 1.6 6.13 5.26 6.13 2.32 0 5.4-1.1 5.65-1.24.48-.2.7-.67.52-1.14l-.95-3c-.14-.47-.52-.7-1.04-.5-.5.18-1.5.5-2.3.5-.7 0-1.4-.18-1.4-1.5V135h4.2c.5 0 .9-.44.9-.9v-3.2c0-.52-.4-.9-.9-.9h-4.2v-5.32c0-.48-.3-.9-.8-.9l-3.9.05c-.4 0-.9.42-.9.9V130h-1.6c-.5 0-.8.38-.8.9v3.2c0 .46.4.9.9.9h1.6v8.35zm15.38 4.75c0 .47.42.9.9.9h3.66c.7 0 1.1-.24 1.1-.9v-11.5c.4-.66 1.5-1.94 3.4-1.94.5 0 1.3.23 1.4.28.4.2.9 0 1.1-.43l1.8-3c.6-1.2-1.4-1.9-3.6-1.9-2.9 0-4.7 2-5.3 3l-.6-1.8c-.1-.4-.4-.6-.8-.6h-1.8c-.5 0-.9.4-.9.9v17.2zm14.8-5.13c0-3.38 2.77-6 7.62-6 1.9 0 3.46.53 3.46.53.05-2.42-.7-3.27-2.47-3.27-1.76 0-4.23.38-5.32.7-.66.2-1-.23-1.1-.84l-.42-2.5c-.14-.7.24-1.1.67-1.2.3-.2 3.4-.9 6.4-.9 5.9 0 7.3 3.1 7.3 8.2V148c0 .48-.4.9-.9.9h-1.7c-.4 0-.6-.13-.8-.65l-.6-1.3c-1.1 1-2.9 2.44-5.8 2.44-3.8 0-6.4-2.5-6.4-6.5zm5.24 0c0 1.42 1 2.47 2.4 2.47 1.5 0 3-1.28 3.3-1.85v-2.7s-1.3-.6-2.7-.6c-1.9 0-3.1 1-3.1 2.5zm22.5 6.03c.1.24.3.47.8.47h.2c.4 0 .6-.23.8-.47l8.7-17.86c.3-.62 0-1.14-.7-1.14H447c-.52 0-.9.05-1.14.52l-4.1 8.84h-.1l-3.84-8.84c-.14-.28-.38-.52-.86-.52h-4.13c-.7 0-.95.52-.66 1.14L440.8 149zm12.3-9.5c0-5.37 4-9.97 9.7-9.97 4.9 0 8.8 3.7 8.8 8.83 0 .33-.1.95-.1 1.28-.1.48-.5.8-.9.8h-12.1c.1 1.96 1.8 4.14 4.5 4.14 1.5 0 2.8-.57 3.7-1.2.5-.27.9-.37 1.2.02l1.9 2.23c.3.33.4.85-.1 1.23-1.6 1.47-4 2.6-7.1 2.6-5.7 0-9.8-4.5-9.8-9.96zm5.8-2.38h7.1c-.2-1.75-1.7-3.22-3.5-3.22-1.9 0-3.5 1.42-3.7 3.22zm16.7 10.98c0 .47.4.9.9.9h4c.4 0 .9-.43.9-.9v-31.45c0-.47-.5-.9-.9-.9h-4c-.5 0-.9.43-.9.9v31.45zm27.8.33v13.92c0 .57-.3.9-1.2.9h-3.8c-.5 0-.9-.43-.9-.9V130.9c0-.52.4-.9.9-.9h1.8c.3 0 .6.2.8.57l.6 1.57c.7-.95 3-2.6 6.1-2.6 5.2 0 9.1 4.5 9.1 9.96 0 5.6-4.3 9.97-9.4 9.97-1.9 0-3.6-.66-4.3-1.04zm-.3-5.18s1.3 1.1 3.7 1.1c2.6 0 4.6-2.2 4.6-4.85 0-2.66-1.8-4.84-4.4-4.84-2.5 0-3.7 1.9-3.9 2.9v5.7zm18.1 4.85c0 .47.4.9.9.9h4c.4 0 .9-.43.9-.9v-31.45c0-.47-.5-.9-.9-.9h-4c-.5 0-.9.43-.9.9v31.45zm10.1-5.13c0-3.38 2.7-6 7.6-6 1.9 0 3.5.53 3.5.53 0-2.42-.7-3.27-2.5-3.27s-4.2.38-5.3.7c-.7.2-1-.23-1.1-.84l-.4-2.5c-.2-.7.2-1.1.6-1.2.4-.2 3.4-.9 6.4-.9 5.9 0 7.3 3.1 7.3 8.2V148c0 .48-.4.9-.9.9H545c-.33 0-.57-.13-.8-.65l-.6-1.3c-1.1 1-2.83 2.44-5.8 2.44-3.8 0-6.4-2.5-6.4-6.5zm5.2 0c0 1.42 1 2.47 2.4 2.47 1.5 0 3-1.28 3.3-1.85v-2.7s-1.3-.6-2.7-.6c-1.86 0-3.1 1-3.1 2.5zm17.4.38c0 3.84 1.6 6.13 5.3 6.13 2.3 0 5.4-1.1 5.6-1.24.5-.2.7-.67.5-1.14l-1-3c-.18-.47-.56-.7-1.08-.5-.54.18-1.53.5-2.34.5-.74 0-1.45-.18-1.45-1.5V135h4.2c.5 0 .9-.44.9-.9v-3.2c0-.52-.4-.9-.9-.9h-4.2v-5.32c0-.48-.4-.9-.87-.9l-3.9.05c-.47 0-.9.42-.9.9V130h-1.6c-.5 0-.87.38-.87.9v3.2c0 .46.35.9.83.9h1.7v8.35zm16.5 4.75V135H569c-.5 0-.9-.44-.9-.9v-3.2c0-.52.4-.9.9-.9h1.6v-5.13c0-6.27 3.87-9.6 8.9-9.6 2.5 0 4.76 1.1 5.6 1.86.3.23.4.76.2 1.1l-1.6 3.03c-.2.38-.7.47-1.13.24-.65-.38-1.8-.95-2.84-.95-2 0-3.15 1.56-3.15 4.32V130h4.75c.5 0 .9.38.9.9v3.2c0 .46-.4.9-.9.9h-4.8v13.1c0 .47-.45.9-.9.9h-4.15c-.46 0-.9-.43-.9-.9zm13.7-8.65c0-5.36 4.36-9.92 9.73-9.92s9.72 4.56 9.72 9.92c0 5.47-4.4 10.03-9.77 10.03s-9.74-4.56-9.74-10.03zm5.17 0c0 2.7 2 4.9 4.6 4.9 2.5 0 4.54-2.2 4.54-4.9 0-2.66-2.02-4.8-4.54-4.8-2.58 0-4.57 2.14-4.57 4.8zm18.6 8.65c0 .47.4.9.9.9h3.65c.64 0 1.1-.24 1.1-.9v-11.5c.3-.66 1.44-1.94 3.34-1.94.6 0 1.3.23 1.4.28.4.2.9 0 1.1-.43l1.8-3c.56-1.2-1.44-1.9-3.67-1.9-2.95 0-4.7 2-5.4 3l-.64-1.8c-.1-.4-.4-.6-.82-.6H609c-.48 0-.9.4-.9.9v17.2zm16.2 0c0 .47.4.9.9.9h3.9c.47 0 .9-.43.9-.9v-10.45c.47-1.28 1.6-3 4-3s3.5 1.57 3.5 4.04v9.4c0 .4.4.9.9.9h3.6c.5 0 .92-.5.92-.9v-9.7c0-.9-.07-1.8-.07-1.8s1.27-2 4-2c2.4 0 3.6 1.5 3.6 4v9.4c0 .4.34.9.9.9h3.8c.5 0 .9-.5.9-.9v-9c0-5-2.2-9.5-8.3-9.5-3.4 0-5.9 2.1-6.7 2.9-1.6-1.9-3.5-3-6.2-3-3.4 0-5.6 1.9-6.4 2.8l-.7-1.8c-.1-.3-.4-.5-.8-.5H625c-.5 0-.9.4-.9.9V148z"/></g></svg>