<svg xmlns="http://www.w3.org/2000/svg" width="1074" height="88"><path fill="#FFF" fill-rule="evenodd" d="M.16 83.72c0 1.2 1.08 2.28 2.28 2.28h10.92c1.32 0 2.28-1.08 2.28-2.28v-51.6h.12L65.92 87.2h2.88c1.2 0 2.28-.96 2.28-2.16V4.28C71.08 3.08 70 2 68.8 2H57.76c-1.32 0-2.28 1.08-2.28 2.28v49.56h-.12L5.44.8h-3C1.24.8.16 1.76.16 2.96v80.76zm124.76-39.6C124.92 20.12 144 .8 168 .8s43.2 19.32 43.2 43.32S192 87.2 168 87.2c-24 0-43.08-19.08-43.08-43.08zm15.6 0c0 15.12 12.36 27.48 27.48 27.48 15.12 0 27.6-12.36 27.6-27.48C195.6 29 183.12 16.4 168 16.4c-15.12 0-27.48 12.6-27.48 27.72zM259.4 83.24c-.24 1.68.72 2.76 2.28 2.76h10.8c1.08 0 2.04-.96 2.16-1.8l6.96-45.48h.36l21.24 47.16c.36.72.96 1.32 2.04 1.32h2.16c1.08 0 1.8-.6 2.04-1.32l21-47.16h.36l7.08 45.48c.24.84 1.2 1.8 2.28 1.8h10.92c1.56 0 2.52-1.08 2.16-2.76L339.08 2.6c-.12-.96-.84-1.8-2.16-1.8H335c-1.08 0-1.68.48-2.04 1.2l-26.4 56.64h-.36L279.8 2c-.36-.72-1.08-1.2-2.04-1.2h-1.92c-1.32 0-2.04.84-2.16 1.8L259.4 83.24zm142.28-39.12c0-24 19.08-43.32 43.08-43.32s43.2 19.32 43.2 43.32-19.2 43.08-43.2 43.08c-24 0-43.08-19.08-43.08-43.08zm15.6 0c0 15.12 12.36 27.48 27.48 27.48 15.12 0 27.6-12.36 27.6-27.48 0-15.12-12.48-27.72-27.6-27.72-15.12 0-27.48 12.6-27.48 27.72zm193.92 39.6c0 1.2.96 2.28 2.28 2.28h11.04c1.2 0 2.28-1.08 2.28-2.28V53.36h29.64c1.2 0 2.28-1.08 2.28-2.28v-9.84c0-1.2-1.08-2.28-2.28-2.28H626.8V16.4h35.52c1.32 0 2.28-1.08 2.28-2.28V4.28c0-1.2-.96-2.28-2.28-2.28h-48.84c-1.32 0-2.28 1.08-2.28 2.28v79.44zm99.68-39.6c0-24 19.08-43.32 43.08-43.32s43.2 19.32 43.2 43.32-19.2 43.08-43.2 43.08c-24 0-43.08-19.08-43.08-43.08zm15.6 0c0 15.12 12.36 27.48 27.48 27.48 15.12 0 27.6-12.36 27.6-27.48 0-15.12-12.48-27.72-27.6-27.72-15.12 0-27.48 12.6-27.48 27.72zm118.88 39.12c-.24 1.68.72 2.76 2.28 2.76h10.8c1.08 0 2.04-.96 2.16-1.8l6.96-45.48h.36l21.24 47.16c.36.72.96 1.32 2.04 1.32h2.16c1.08 0 1.8-.6 2.04-1.32l21-47.16h.36l7.08 45.48c.24.84 1.2 1.8 2.28 1.8h10.92c1.56 0 2.52-1.08 2.16-2.76L925.04 2.6c-.12-.96-.84-1.8-2.16-1.8h-1.92c-1.08 0-1.68.48-2.04 1.2l-26.4 56.64h-.36L865.76 2c-.36-.72-1.08-1.2-2.04-1.2h-1.92c-1.32 0-2.04.84-2.16 1.8l-14.28 80.64zm142.28-39.12c0-24 19.08-43.32 43.08-43.32s43.2 19.32 43.2 43.32-19.2 43.08-43.2 43.08c-24 0-43.08-19.08-43.08-43.08zm15.6 0c0 15.12 12.36 27.48 27.48 27.48 15.12 0 27.6-12.36 27.6-27.48 0-15.12-12.48-27.72-27.6-27.72-15.12 0-27.48 12.6-27.48 27.72z"/></svg>