<?xml version="1.0" encoding="UTF-8"?>
<svg width="194px" height="27px" viewBox="0 0 194 27" version="1.1" xmlns="http://www.w3.org/2000/svg" xmlns:xlink="http://www.w3.org/1999/xlink">
    <!-- Generator: Sketch 45.2 (43514) - http://www.bohemiancoding.com/sketch -->
    <title>NomoFOMO Copy</title>
    <desc>Created with Sketch.</desc>
    <defs></defs>
    <g id="Page-1" stroke="none" stroke-width="1" fill="none" fill-rule="evenodd">
        <path d="M0.492,25.316 C0.492,25.676 0.816,26 1.176,26 L3.444,26 C3.84,26 4.128,25.676 4.128,25.316 L4.128,7.784 L4.164,7.784 L19.788,26.36 L20.724,26.36 C21.084,26.36 21.408,26.072 21.408,25.712 L21.408,1.484 C21.408,1.124 21.084,0.8 20.724,0.8 L18.42,0.8 C18.024,0.8 17.736,1.124 17.736,1.484 L17.736,18.512 L17.7,18.512 L2.076,0.44 L1.176,0.44 C0.816,0.44 0.492,0.728 0.492,1.088 L0.492,25.316 Z M25.404,18.764 C25.404,14.696 28.644,11.24 32.676,11.24 C36.708,11.24 39.948,14.696 39.948,18.764 C39.948,22.904 36.708,26.36 32.676,26.36 C28.644,26.36 25.404,22.904 25.404,18.764 Z M28.608,18.764 C28.608,21.248 30.408,23.264 32.676,23.264 C34.944,23.264 36.744,21.248 36.744,18.764 C36.744,16.352 34.944,14.372 32.676,14.372 C30.408,14.372 28.608,16.352 28.608,18.764 Z M43.548,25.316 C43.548,25.676 43.872,26 44.232,26 L46.248,26 C46.608,26 46.932,25.676 46.932,25.316 L46.932,16.532 C47.112,16.064 48.336,14.372 50.496,14.372 C52.512,14.372 53.556,15.632 53.556,17.936 L53.556,25.316 C53.556,25.676 53.844,26 54.24,26 L56.148,26 C56.508,26 56.832,25.676 56.832,25.316 L56.832,17.864 C56.832,17.144 56.796,16.46 56.724,16.136 C56.976,15.92 58.236,14.372 60.432,14.372 C62.376,14.372 63.42,15.668 63.42,17.936 L63.42,25.316 C63.42,25.676 63.708,26 64.104,26 L66.12,26 C66.516,26 66.804,25.676 66.804,25.316 L66.804,18.08 C66.804,14.336 65.256,11.24 60.864,11.24 C58.128,11.24 56.04,13.148 55.644,13.544 C54.6,12.068 53.088,11.24 51,11.24 C48.228,11.24 46.572,12.932 46.248,13.256 L45.852,12.032 C45.744,11.78 45.564,11.6 45.24,11.6 L44.232,11.6 C43.872,11.6 43.548,11.924 43.548,12.284 L43.548,25.316 Z M70.224,18.764 C70.224,14.696 73.464,11.24 77.496,11.24 C81.528,11.24 84.768,14.696 84.768,18.764 C84.768,22.904 81.528,26.36 77.496,26.36 C73.464,26.36 70.224,22.904 70.224,18.764 Z M73.428,18.764 C73.428,21.248 75.228,23.264 77.496,23.264 C79.764,23.264 81.564,21.248 81.564,18.764 C81.564,16.352 79.764,14.372 77.496,14.372 C75.228,14.372 73.428,16.352 73.428,18.764 Z M88.764,25.316 C88.764,25.676 89.052,26 89.448,26 L91.788,26 C92.148,26 92.472,25.676 92.472,25.316 L92.472,15.848 L102.084,15.848 C102.444,15.848 102.768,15.524 102.768,15.164 L102.768,13.184 C102.768,12.824 102.444,12.5 102.084,12.5 L92.472,12.5 L92.472,4.184 L103.848,4.184 C104.244,4.184 104.532,3.86 104.532,3.5 L104.532,1.484 C104.532,1.124 104.244,0.8 103.848,0.8 L89.448,0.8 C89.052,0.8 88.764,1.124 88.764,1.484 L88.764,25.316 Z M107.304,13.436 C107.304,6.236 113.028,0.44 120.228,0.44 C127.428,0.44 133.188,6.236 133.188,13.436 C133.188,20.636 127.428,26.36 120.228,26.36 C113.028,26.36 107.304,20.636 107.304,13.436 Z M110.904,13.436 C110.904,18.584 115.116,22.76 120.228,22.76 C125.376,22.76 129.588,18.584 129.588,13.436 C129.588,8.324 125.376,4.04 120.228,4.04 C115.116,4.04 110.904,8.324 110.904,13.436 Z M136.608,25.172 C136.536,25.676 136.788,26 137.292,26 L139.632,26 C139.92,26 140.244,25.748 140.28,25.496 L142.872,9.404 L143.016,9.404 L149.532,25.964 C149.604,26.18 149.856,26.36 150.144,26.36 L150.792,26.36 C151.116,26.36 151.332,26.18 151.404,25.964 L157.884,9.404 L157.992,9.404 L160.656,25.496 C160.728,25.748 161.016,26 161.34,26 L163.68,26 C164.184,26 164.436,25.676 164.328,25.172 L159.9,0.98 C159.828,0.692 159.54,0.44 159.252,0.44 L158.676,0.44 C158.424,0.44 158.136,0.62 158.064,0.836 L150.576,19.232 L150.432,19.232 L142.908,0.836 C142.836,0.62 142.512,0.44 142.296,0.44 L141.72,0.44 C141.432,0.44 141.144,0.692 141.072,0.98 L136.608,25.172 Z M167.784,13.436 C167.784,6.236 173.508,0.44 180.708,0.44 C187.908,0.44 193.668,6.236 193.668,13.436 C193.668,20.636 187.908,26.36 180.708,26.36 C173.508,26.36 167.784,20.636 167.784,13.436 Z M171.384,13.436 C171.384,18.584 175.596,22.76 180.708,22.76 C185.856,22.76 190.068,18.584 190.068,13.436 C190.068,8.324 185.856,4.04 180.708,4.04 C175.596,4.04 171.384,8.324 171.384,13.436 Z" id="NomoFOMO-Copy" fill="#FFFFFF"></path>
    </g>
</svg>